<svg xmlns="http://www.w3.org/2000/svg" width="141.512" height="52.487" viewBox="0 0 141.512 52.487">
  <g id="Group_482" data-name="Group 482" transform="translate(3229 3478)">
    <g id="LOGO_Convertido_" data-name="LOGO [Convertido]" transform="translate(-3229 -3478)">
      <path id="Path_1" data-name="Path 1" d="M32.957,16.6A16.479,16.479,0,1,1,16.518,0,16.53,16.53,0,0,1,32.957,16.6Z" fill-rule="evenodd"/>
      <ellipse id="Ellipse_1" data-name="Ellipse 1" cx="12.566" cy="12.65" rx="12.566" ry="12.65" transform="translate(3.952 4.031)" fill="#f7d622"/>
      <path id="Path_2" data-name="Path 2" d="M21.419,10.6H13.2A4.711,4.711,0,0,1,14.544,14,5.062,5.062,0,0,1,13.2,17.4h8.219a3.424,3.424,0,0,0,3.4-3.4A3.373,3.373,0,0,0,21.419,10.6Z" transform="translate(-2.768 -2.219)" fill-rule="evenodd"/>
      <path id="Path_3" data-name="Path 3" d="M22.842,22.8H13.2a4.711,4.711,0,0,1,1.344,3.4A5.062,5.062,0,0,1,13.2,29.6h9.642a3.4,3.4,0,0,0,0-6.8Z" transform="translate(-2.768 -4.773)" fill-rule="evenodd"/>
      <path id="Path_4" data-name="Path 4" d="M67.755,9.25A11.938,11.938,0,1,1,55.9,21.187V0h0a4.353,4.353,0,0,1,4.347,4.427v7.51A11.927,11.927,0,0,1,67.755,9.25Zm0,4.427a7.51,7.51,0,1,0,7.508,7.51A7.557,7.557,0,0,0,67.755,13.677Z" transform="translate(-11.704)" fill-rule="evenodd"/>
      <path id="Path_5" data-name="Path 5" d="M117.755,11.7A11.907,11.907,0,0,1,129.61,23.634a10,10,0,0,1-.237,2.213h-18.81a7.494,7.494,0,0,0,7.192,5.3,7.6,7.6,0,0,0,5.69-2.608h5.137A11.882,11.882,0,1,1,117.755,11.7Zm7.113,9.8a7.478,7.478,0,0,0-14.3,0h14.3Z" transform="translate(-22.173 -2.443)" fill-rule="evenodd"/>
      <path id="Path_6" data-name="Path 6" d="M151.055,9.25A11.938,11.938,0,1,0,162.91,21.187V0h0a4.353,4.353,0,0,0-4.347,4.427v7.51A11.927,11.927,0,0,0,151.055,9.25Zm0,4.427a7.51,7.51,0,1,1-7.508,7.51A7.557,7.557,0,0,1,151.055,13.677Z" transform="translate(-29.142)" fill-rule="evenodd"/>
      <path id="Path_7" data-name="Path 7" d="M89.2,23.734A11.856,11.856,0,0,1,101.055,11.8v4.426a7.556,7.556,0,0,0-7.508,7.508v7.508A4.4,4.4,0,0,1,89.2,35.668h0Z" transform="translate(-18.679 -2.464)" fill-rule="evenodd"/>
      <path id="Path_8" data-name="Path 8" d="M173.4,12.3h4.426V31.426a4.419,4.419,0,0,1-4.426,4.426h0Z" transform="translate(-36.313 -2.569)" fill-rule="evenodd"/>
      <path id="Path_9" data-name="Path 9" d="M175.613,0a2.262,2.262,0,0,1,2.213,2.213,2.213,2.213,0,1,1-4.426,0A2.262,2.262,0,0,1,175.613,0Z" transform="translate(-36.313)" fill-rule="evenodd"/>
    </g>
    <path id="Path_988" data-name="Path 988" d="M-72.528-.6a4.287,4.287,0,0,1-2.1-.516,3.8,3.8,0,0,1-1.47-1.42,3.935,3.935,0,0,1-.532-2.036A3.935,3.935,0,0,1-76.1-6.6a3.785,3.785,0,0,1,1.475-1.42,4.319,4.319,0,0,1,2.108-.516,4.4,4.4,0,0,1,1.664.305,3.406,3.406,0,0,1,1.287.9l-.721.7a2.893,2.893,0,0,0-2.185-.921,3.166,3.166,0,0,0-1.564.388,2.816,2.816,0,0,0-1.093,1.07,3,3,0,0,0-.394,1.525,3,3,0,0,0,.394,1.525,2.816,2.816,0,0,0,1.093,1.07,3.166,3.166,0,0,0,1.564.388,2.9,2.9,0,0,0,2.185-.932l.721.7a3.451,3.451,0,0,1-1.292.91A4.372,4.372,0,0,1-72.528-.6Zm5.413-4.981a1.817,1.817,0,0,1,.821-.777,2.979,2.979,0,0,1,1.32-.266V-5.59a2.079,2.079,0,0,0-.244-.011,1.792,1.792,0,0,0-1.359.516,2.042,2.042,0,0,0-.494,1.47V-.686h-1.065V-6.566h1.021Zm3.45-.987H-62.6V-.686h-1.065Zm.532-1.132a.71.71,0,0,1-.516-.2.655.655,0,0,1-.205-.488.673.673,0,0,1,.205-.494.7.7,0,0,1,.516-.205.721.721,0,0,1,.516.194.637.637,0,0,1,.205.483.686.686,0,0,1-.205.5A.7.7,0,0,1-63.132-7.7Zm8.109,1.132V-.686h-1.021v-.932a2.306,2.306,0,0,1-.9.743,2.784,2.784,0,0,1-1.2.255A3.09,3.09,0,0,1-59.67-1,2.7,2.7,0,0,1-60.73-2.056a3.154,3.154,0,0,1-.383-1.57A3.122,3.122,0,0,1-60.73-5.19,2.713,2.713,0,0,1-59.67-6.244a3.09,3.09,0,0,1,1.531-.377,2.817,2.817,0,0,1,1.165.239,2.261,2.261,0,0,1,.887.7v-.887Zm-3.028,5.014a1.994,1.994,0,0,0,1.009-.261,1.829,1.829,0,0,0,.71-.732,2.236,2.236,0,0,0,.255-1.082,2.236,2.236,0,0,0-.255-1.082,1.792,1.792,0,0,0-.71-.727,2.028,2.028,0,0,0-1.009-.255,2.019,2.019,0,0,0-1.015.255,1.839,1.839,0,0,0-.71.727,2.2,2.2,0,0,0-.261,1.082,2.2,2.2,0,0,0,.261,1.082,1.878,1.878,0,0,0,.71.732A1.985,1.985,0,0,0-58.051-1.552Zm7.61.932a3.265,3.265,0,0,1-1.6-.388,2.845,2.845,0,0,1-1.1-1.07,3.006,3.006,0,0,1-.4-1.548,3.006,3.006,0,0,1,.4-1.548,2.806,2.806,0,0,1,1.1-1.065,3.3,3.3,0,0,1,1.6-.383,3.077,3.077,0,0,1,1.425.322,2.291,2.291,0,0,1,.971.932l-.81.521a1.809,1.809,0,0,0-.688-.632,1.962,1.962,0,0,0-.91-.211,2.1,2.1,0,0,0-1.037.255,1.818,1.818,0,0,0-.721.727,2.2,2.2,0,0,0-.261,1.082,2.221,2.221,0,0,0,.261,1.093,1.818,1.818,0,0,0,.721.727,2.1,2.1,0,0,0,1.037.255,1.962,1.962,0,0,0,.91-.211,1.809,1.809,0,0,0,.688-.632l.81.51a2.326,2.326,0,0,1-.971.937A3.034,3.034,0,0,1-50.441-.62ZM-50.962,1.8a1.9,1.9,0,0,1-.987-.244l.233-.544a1.5,1.5,0,0,0,.754.189q.621,0,.621-.444A.374.374,0,0,0-50.5.44a.8.8,0,0,0-.477-.116h-.3L-51-.764h.61l-.166.632a1.127,1.127,0,0,1,.716.294.85.85,0,0,1,.25.627.862.862,0,0,1-.377.738A1.671,1.671,0,0,1-50.962,1.8Zm9.751-8.364V-.686h-1.021v-.932a2.306,2.306,0,0,1-.9.743,2.784,2.784,0,0,1-1.2.255A3.09,3.09,0,0,1-45.859-1a2.7,2.7,0,0,1-1.059-1.059,3.154,3.154,0,0,1-.383-1.57,3.122,3.122,0,0,1,.383-1.564,2.713,2.713,0,0,1,1.059-1.054,3.09,3.09,0,0,1,1.531-.377,2.817,2.817,0,0,1,1.165.239,2.261,2.261,0,0,1,.887.7v-.887ZM-44.24-1.552a1.994,1.994,0,0,0,1.009-.261,1.829,1.829,0,0,0,.71-.732,2.237,2.237,0,0,0,.255-1.082,2.237,2.237,0,0,0-.255-1.082,1.792,1.792,0,0,0-.71-.727,2.028,2.028,0,0,0-1.009-.255,2.019,2.019,0,0,0-1.015.255,1.839,1.839,0,0,0-.71.727,2.2,2.2,0,0,0-.261,1.082,2.2,2.2,0,0,0,.261,1.082,1.878,1.878,0,0,0,.71.732A1.985,1.985,0,0,0-44.24-1.552Zm.965-5.9a.913.913,0,0,1-.46-.111,4.486,4.486,0,0,1-.483-.333,1.762,1.762,0,0,0-.288-.227A.476.476,0,0,0-44.75-8.2a.5.5,0,0,0-.4.183.8.8,0,0,0-.166.5h-.6A1.629,1.629,0,0,1-45.6-8.5a.941.941,0,0,1,.771-.366.938.938,0,0,1,.471.116,3.34,3.34,0,0,1,.471.338,3.583,3.583,0,0,0,.3.227.421.421,0,0,0,.233.072.506.506,0,0,0,.4-.177.759.759,0,0,0,.166-.488h.6a1.568,1.568,0,0,1-.316.96A.947.947,0,0,1-43.275-7.453Zm6.6,6.833a3.188,3.188,0,0,1-1.575-.388,2.816,2.816,0,0,1-1.093-1.07,3.039,3.039,0,0,1-.394-1.548,3.039,3.039,0,0,1,.394-1.548A2.777,2.777,0,0,1-38.25-6.239a3.225,3.225,0,0,1,1.575-.383,3.193,3.193,0,0,1,1.57.383,2.787,2.787,0,0,1,1.087,1.065,3.039,3.039,0,0,1,.394,1.548,3.039,3.039,0,0,1-.394,1.548A2.826,2.826,0,0,1-35.1-1.008,3.157,3.157,0,0,1-36.674-.62Zm0-.932a1.985,1.985,0,0,0,1.015-.261,1.84,1.84,0,0,0,.7-.732A2.236,2.236,0,0,0-34.7-3.626a2.236,2.236,0,0,0-.255-1.082,1.8,1.8,0,0,0-.7-.727,2.019,2.019,0,0,0-1.015-.255,2.019,2.019,0,0,0-1.015.255,1.839,1.839,0,0,0-.71.727,2.2,2.2,0,0,0-.261,1.082A2.2,2.2,0,0,0-38.4-2.545a1.879,1.879,0,0,0,.71.732A1.985,1.985,0,0,0-36.674-1.552ZM-20.2-6.566v3.25a2.843,2.843,0,0,1-.643,2,2.407,2.407,0,0,1-1.864.7,2.055,2.055,0,0,1-2-1.054,1.882,1.882,0,0,1-.782.793,2.6,2.6,0,0,1-1.226.261,2.4,2.4,0,0,1-1.869-.7,2.859,2.859,0,0,1-.638-2v-3.25h1.065v3.15a2.289,2.289,0,0,0,.344,1.392,1.3,1.3,0,0,0,1.1.449A1.336,1.336,0,0,0-25.6-2.029a2.213,2.213,0,0,0,.361-1.387v-3.15h1.065v3.15a2.213,2.213,0,0,0,.361,1.387,1.336,1.336,0,0,0,1.115.455,1.282,1.282,0,0,0,1.087-.449,2.289,2.289,0,0,0,.344-1.392v-3.15Zm4.615,5.014a2.181,2.181,0,0,0,1.7-.71l.577.688a2.483,2.483,0,0,1-.982.71,3.456,3.456,0,0,1-1.326.244A3.472,3.472,0,0,1-17.272-1a2.73,2.73,0,0,1-1.115-1.07,3.069,3.069,0,0,1-.394-1.553A3.117,3.117,0,0,1-18.4-5.168a2.742,2.742,0,0,1,1.054-1.07,3,3,0,0,1,1.514-.383,2.961,2.961,0,0,1,1.453.361,2.721,2.721,0,0,1,1.043,1.015,2.979,2.979,0,0,1,.4,1.509l-4.67.91a1.813,1.813,0,0,0,.749.943A2.33,2.33,0,0,0-15.586-1.552Zm-.244-4.171a1.936,1.936,0,0,0-.993.255,1.767,1.767,0,0,0-.682.716,2.252,2.252,0,0,0-.244,1.07v.111l3.761-.71a1.8,1.8,0,0,0-.643-1.043A1.858,1.858,0,0,0-15.83-5.723Zm7.5-.9A3.09,3.09,0,0,1-6.8-6.244,2.713,2.713,0,0,1-5.741-5.19a3.122,3.122,0,0,1,.383,1.564,3.154,3.154,0,0,1-.383,1.57A2.7,2.7,0,0,1-6.8-1,3.09,3.09,0,0,1-8.331-.62a2.784,2.784,0,0,1-1.2-.255,2.306,2.306,0,0,1-.9-.743v.932h-1.021V-8.918h1.065v3.239a2.261,2.261,0,0,1,.887-.7A2.817,2.817,0,0,1-8.331-6.621Zm-.089,5.07A1.985,1.985,0,0,0-7.4-1.812a1.879,1.879,0,0,0,.71-.732,2.2,2.2,0,0,0,.261-1.082,2.2,2.2,0,0,0-.261-1.082,1.839,1.839,0,0,0-.71-.727A2.019,2.019,0,0,0-8.42-5.689a2.028,2.028,0,0,0-1.009.255,1.792,1.792,0,0,0-.71.727,2.236,2.236,0,0,0-.255,1.082,2.236,2.236,0,0,0,.255,1.082,1.829,1.829,0,0,0,.71.732A1.994,1.994,0,0,0-8.42-1.552ZM.787-.62A4.927,4.927,0,0,1-.6-.814a3.045,3.045,0,0,1-1.043-.494l.444-.843a3.185,3.185,0,0,0,.943.444,3.88,3.88,0,0,0,1.12.166q1.4,0,1.4-.8a.517.517,0,0,0-.189-.422A1.194,1.194,0,0,0,1.6-2.988Q1.32-3.06.8-3.149A7.881,7.881,0,0,1-.361-3.4a1.787,1.787,0,0,1-.771-.488,1.358,1.358,0,0,1-.322-.965A1.507,1.507,0,0,1-.788-6.139,2.981,2.981,0,0,1,1-6.621a4.92,4.92,0,0,1,1.176.144,3.162,3.162,0,0,1,.965.388l-.455.843a3.058,3.058,0,0,0-1.7-.466A1.962,1.962,0,0,0-.045-5.49.67.67,0,0,0-.4-4.9a.561.561,0,0,0,.2.455A1.263,1.263,0,0,0,.294-4.2q.294.078.826.177a8.97,8.97,0,0,1,1.148.261,1.715,1.715,0,0,1,.749.471,1.313,1.313,0,0,1,.311.932,1.469,1.469,0,0,1-.682,1.27A3.222,3.222,0,0,1,.787-.62Zm6.39,0A3.188,3.188,0,0,1,5.6-1.008a2.816,2.816,0,0,1-1.093-1.07,3.039,3.039,0,0,1-.394-1.548,3.039,3.039,0,0,1,.394-1.548A2.777,2.777,0,0,1,5.6-6.239a3.225,3.225,0,0,1,1.575-.383,3.193,3.193,0,0,1,1.57.383A2.787,2.787,0,0,1,9.834-5.174a3.039,3.039,0,0,1,.394,1.548,3.039,3.039,0,0,1-.394,1.548,2.826,2.826,0,0,1-1.087,1.07A3.157,3.157,0,0,1,7.177-.62Zm0-.932a1.985,1.985,0,0,0,1.015-.261,1.84,1.84,0,0,0,.7-.732,2.236,2.236,0,0,0,.255-1.082A2.236,2.236,0,0,0,8.9-4.708a1.8,1.8,0,0,0-.7-.727,2.019,2.019,0,0,0-1.015-.255,2.019,2.019,0,0,0-1.015.255,1.839,1.839,0,0,0-.71.727,2.2,2.2,0,0,0-.261,1.082,2.2,2.2,0,0,0,.261,1.082,1.879,1.879,0,0,0,.71.732A1.985,1.985,0,0,0,7.177-1.552Zm7.643-5.07a3.09,3.09,0,0,1,1.531.377A2.713,2.713,0,0,1,17.411-5.19a3.122,3.122,0,0,1,.383,1.564,3.154,3.154,0,0,1-.383,1.57A2.7,2.7,0,0,1,16.351-1,3.09,3.09,0,0,1,14.82-.62a2.784,2.784,0,0,1-1.2-.255,2.306,2.306,0,0,1-.9-.743v.932H11.7V-8.918h1.065v3.239a2.261,2.261,0,0,1,.887-.7A2.817,2.817,0,0,1,14.82-6.621Zm-.089,5.07a1.985,1.985,0,0,0,1.015-.261,1.879,1.879,0,0,0,.71-.732,2.2,2.2,0,0,0,.261-1.082,2.2,2.2,0,0,0-.261-1.082,1.839,1.839,0,0,0-.71-.727,2.019,2.019,0,0,0-1.015-.255,2.028,2.028,0,0,0-1.009.255,1.792,1.792,0,0,0-.71.727,2.236,2.236,0,0,0-.255,1.082,2.236,2.236,0,0,0,.255,1.082,1.829,1.829,0,0,0,.71.732A1.994,1.994,0,0,0,14.732-1.552Zm14.876-5.07a2.387,2.387,0,0,1,1.758.643,2.575,2.575,0,0,1,.649,1.908V-.686H30.95V-3.948a1.854,1.854,0,0,0-.394-1.287,1.445,1.445,0,0,0-1.126-.433,1.686,1.686,0,0,0-1.287.5,2.028,2.028,0,0,0-.477,1.448V-.686H26.6V-3.948a1.854,1.854,0,0,0-.394-1.287,1.445,1.445,0,0,0-1.126-.433,1.686,1.686,0,0,0-1.287.5,2.028,2.028,0,0,0-.477,1.448V-.686H22.253V-6.566h1.021v.876a2.064,2.064,0,0,1,.843-.693A2.823,2.823,0,0,1,25.3-6.621a2.6,2.6,0,0,1,1.22.277,1.927,1.927,0,0,1,.821.81,2.253,2.253,0,0,1,.926-.8A3.019,3.019,0,0,1,29.608-6.621Zm7.055,5.07a2.181,2.181,0,0,0,1.7-.71l.577.688a2.483,2.483,0,0,1-.982.71A3.456,3.456,0,0,1,36.63-.62,3.472,3.472,0,0,1,34.977-1a2.73,2.73,0,0,1-1.115-1.07,3.069,3.069,0,0,1-.394-1.553,3.117,3.117,0,0,1,.383-1.542A2.742,2.742,0,0,1,34.9-6.239a3,3,0,0,1,1.514-.383,2.961,2.961,0,0,1,1.453.361,2.721,2.721,0,0,1,1.043,1.015,2.979,2.979,0,0,1,.4,1.509l-4.67.91a1.813,1.813,0,0,0,.749.943A2.33,2.33,0,0,0,36.663-1.552Zm-.244-4.171a1.936,1.936,0,0,0-.993.255,1.767,1.767,0,0,0-.682.716,2.252,2.252,0,0,0-.244,1.07v.111l3.761-.71a1.8,1.8,0,0,0-.643-1.043A1.858,1.858,0,0,0,36.419-5.723Zm9.928-3.195V-.686H45.327v-.932a2.306,2.306,0,0,1-.9.743,2.784,2.784,0,0,1-1.2.255A3.09,3.09,0,0,1,41.7-1,2.7,2.7,0,0,1,40.64-2.056a3.154,3.154,0,0,1-.383-1.57A3.122,3.122,0,0,1,40.64-5.19,2.713,2.713,0,0,1,41.7-6.244a3.09,3.09,0,0,1,1.531-.377,2.817,2.817,0,0,1,1.165.239,2.261,2.261,0,0,1,.887.7V-8.918ZM43.319-1.552a1.994,1.994,0,0,0,1.009-.261,1.829,1.829,0,0,0,.71-.732,2.237,2.237,0,0,0,.255-1.082,2.237,2.237,0,0,0-.255-1.082,1.792,1.792,0,0,0-.71-.727,2.028,2.028,0,0,0-1.009-.255,2.019,2.019,0,0,0-1.015.255,1.839,1.839,0,0,0-.71.727,2.2,2.2,0,0,0-.261,1.082,2.2,2.2,0,0,0,.261,1.082,1.879,1.879,0,0,0,.71.732A1.985,1.985,0,0,0,43.319-1.552Zm5.047-5.014h1.065V-.686H48.366ZM48.9-7.7a.71.71,0,0,1-.516-.2.655.655,0,0,1-.205-.488.673.673,0,0,1,.205-.494.7.7,0,0,1,.516-.205.721.721,0,0,1,.516.194.637.637,0,0,1,.205.483.686.686,0,0,1-.205.5A.7.7,0,0,1,48.9-7.7Zm8.109-1.22V-.686H55.987v-.932a2.306,2.306,0,0,1-.9.743,2.784,2.784,0,0,1-1.2.255A3.09,3.09,0,0,1,52.36-1,2.7,2.7,0,0,1,51.3-2.056a3.154,3.154,0,0,1-.383-1.57A3.122,3.122,0,0,1,51.3-5.19,2.713,2.713,0,0,1,52.36-6.244a3.09,3.09,0,0,1,1.531-.377,2.817,2.817,0,0,1,1.165.239,2.261,2.261,0,0,1,.887.7V-8.918ZM53.979-1.552a1.994,1.994,0,0,0,1.009-.261,1.829,1.829,0,0,0,.71-.732,2.237,2.237,0,0,0,.255-1.082A2.237,2.237,0,0,0,55.7-4.708a1.792,1.792,0,0,0-.71-.727,2.028,2.028,0,0,0-1.009-.255,2.019,2.019,0,0,0-1.015.255,1.839,1.839,0,0,0-.71.727,2.2,2.2,0,0,0-.261,1.082,2.2,2.2,0,0,0,.261,1.082,1.879,1.879,0,0,0,.71.732A1.985,1.985,0,0,0,53.979-1.552ZM64.573-6.566V-.686H63.553v-.932a2.306,2.306,0,0,1-.9.743,2.784,2.784,0,0,1-1.2.255A3.09,3.09,0,0,1,59.925-1a2.7,2.7,0,0,1-1.059-1.059,3.154,3.154,0,0,1-.383-1.57,3.122,3.122,0,0,1,.383-1.564,2.713,2.713,0,0,1,1.059-1.054,3.09,3.09,0,0,1,1.531-.377,2.817,2.817,0,0,1,1.165.239,2.261,2.261,0,0,1,.887.7v-.887ZM61.545-1.552a1.994,1.994,0,0,0,1.009-.261,1.829,1.829,0,0,0,.71-.732,2.237,2.237,0,0,0,.255-1.082,2.237,2.237,0,0,0-.255-1.082,1.792,1.792,0,0,0-.71-.727,2.028,2.028,0,0,0-1.009-.255,2.019,2.019,0,0,0-1.015.255,1.839,1.839,0,0,0-.71.727,2.2,2.2,0,0,0-.261,1.082,2.2,2.2,0,0,0,.261,1.082,1.879,1.879,0,0,0,.71.732A1.985,1.985,0,0,0,61.545-1.552Z" transform="translate(-3152.121 -3427.312)" fill="#929292"/>
  </g>
</svg>